<svg width="30" height="26" viewBox="0 0 30 26" fill="none" xmlns="http://www.w3.org/2000/svg">
<path d="M4.89844 6.94332L14.8928 5.04492L24.9781 7.18237V11.7242H21.3925V9.93137L14.8928 8.64851L8.48409 9.93137V16.5051L14.8928 21.141L21.3925 16.5051V14.8318H24.9781V17.8198L14.8928 25.4653L4.89844 17.8198V6.94332Z" fill="#5566CA"/>
<path d="M30 2.98805L14.8207 0L0 2.98805V8.61992L3.10757 10.6518V5.73705L13.0279 3.8247V5.22175L14.8948 4.80479L16.7331 5.22175V3.8247L27.012 5.73705V10.6518L30 8.5004V2.98805Z" fill="#0AD2BA"/>
<path d="M14.8948 8.88885L13.0279 9.24192V16.7331L14.8948 17.7777L16.7331 16.7331V9.24192L14.8948 8.88885Z" fill="#0AD2BA"/>
</svg>
